<?xml version="1.0" encoding="UTF-8" standalone="no"?>
<svg
   xmlns:dc="http://purl.org/dc/elements/1.1/"
   xmlns:cc="http://creativecommons.org/ns#"
   xmlns:rdf="http://www.w3.org/1999/02/22-rdf-syntax-ns#"
   xmlns:svg="http://www.w3.org/2000/svg"
   xmlns="http://www.w3.org/2000/svg"
   xmlns:sodipodi="http://sodipodi.sourceforge.net/DTD/sodipodi-0.dtd"
   xmlns:inkscape="http://www.inkscape.org/namespaces/inkscape"
   height="237.18201"
   width="100.021"
   id="svg2"
   xml:space="preserve"
   viewBox="0 0 100.021 237.182"
   y="0px"
   x="0px"
   version="1.1"
   sodipodi:docname="person-271.svg"
   inkscape:version="0.92.4 (unknown)"><sodipodi:namedview
     pagecolor="#ffffff"
     bordercolor="#666666"
     borderopacity="1"
     objecttolerance="10"
     gridtolerance="10"
     guidetolerance="10"
     inkscape:pageopacity="0"
     inkscape:pageshadow="2"
     inkscape:window-width="1920"
     inkscape:window-height="1163"
     id="namedview8"
     showgrid="false"
     inkscape:zoom="3.8581325"
     inkscape:cx="7.7439255"
     inkscape:cy="118.56272"
     inkscape:window-x="0"
     inkscape:window-y="0"
     inkscape:window-maximized="1"
     inkscape:current-layer="svg2" /><metadata
     id="metadata18"><rdf:RDF><cc:Work
         rdf:about=""><dc:format>image/svg+xml</dc:format><dc:type
           rdf:resource="http://purl.org/dc/dcmitype/StillImage" /><dc:title /></cc:Work></rdf:RDF></metadata><defs
     id="defs16" /><path
     inkscape:connector-curvature="0"
     d="m 90.457387,145.76253 c 4.107403,0 7.549109,-3.20354 7.79118,-7.35389 0.391414,-6.76824 0.573944,-12.9801 0.576872,-18.69806 C 98.784439,90.251097 94.080647,73.944475 87.662831,64.140589 84.455387,59.274762 80.70621,56.152238 77.240101,54.423576 73.960426,52.772025 71.075093,52.375731 69.307387,52.34352 69.16195,52.33472 69.016512,52.32205 68.869121,52.32205 H 31.157739 c -0.149342,0 -0.29478,0.01367 -0.442171,0.02147 -1.768681,0.03416 -4.654991,0.426553 -7.93369,2.07908 -5.250408,2.604218 -10.9098,8.298749 -14.8727402,18.389606 -4.0097932,10.129901 -6.6999076,24.777164 -6.7135729,46.896424 0,5.71698 0.1864339,11.93372 0.5837041,18.70391 0.2449995,4.14645 3.6847539,7.34901 7.7862999,7.34901 0.1551989,0 0.3103978,-0.005 0.4675491,-0.0137 4.304573,-0.25378 7.589129,-3.9483 7.339249,-8.25384 -0.382629,-6.49005 -0.559302,-12.4042 -0.559302,-17.78541 -0.03124,-23.641966 3.415352,-36.920746 6.801421,-43.849059 V 222.27949 c 0,6.66672 5.404632,12.06745 12.067448,12.06745 6.664768,0 12.069399,-5.40073 12.069399,-12.06745 v -88.11296 h 4.524194 v 88.11296 c 0,6.66672 5.404632,12.06745 12.067448,12.06745 6.664768,0 12.069399,-5.40073 12.069399,-12.06745 V 75.907399 c 0.578824,1.18693 1.161552,2.546629 1.736471,4.133757 2.750632,7.627197 5.063974,20.138764 5.057142,39.668454 0,5.38315 -0.174721,11.29828 -0.550517,17.79028 -0.250856,4.30555 3.035651,7.99909 7.341201,8.24897 0.154223,0.01 0.308445,0.0137 0.460716,0.0137 z"
     id="path6"
     style="fill:#888888;stroke-width:0.97609377" /><g
     aria-label="e"
     style="font-style:normal;font-weight:normal;font-size:40px;line-height:1.25;font-family:sans-serif;letter-spacing:0px;word-spacing:0px;fill:#888888;fill-opacity:1;stroke:none"
     id="text4752"
     transform="matrix(1.8631329,0,0,1.8631329,232.8238,-93.462489)"><path
       d="m -91.435402,67.633675 q -0.117187,0.585937 -1.035156,1.757812 -2.890625,3.671875 -7.03125,3.671875 -3.867192,0 -5.976562,-2.910156 -2.07031,-2.851563 -1.28906,-6.757813 0.76172,-3.789062 3.75,-6.601562 3.124997,-2.949219 6.855466,-2.949219 3.515625,0 5.058593,2.402344 1.484375,2.246094 0.78125,5.820312 -0.214843,1.074219 -1.25,1.074219 h -11.679689 q -0.82031,4.042969 0.0391,6.054688 1.19141,2.8125 4.160161,2.8125 3.867187,0 6.523437,-4.316407 0.351563,-0.566406 0.664063,-0.566406 0.527343,0 0.429687,0.507813 z m -1.601562,-5.761719 q 0.507812,-2.734375 -0.09766,-4.648438 -0.78125,-2.421875 -3.222656,-2.421875 -0.800781,0 -1.835937,0.449219 -3.476563,1.503906 -4.746093,6.621094 z"
       style="font-style:italic;font-variant:normal;font-weight:normal;font-stretch:normal;font-family:Symbola;-inkscape-font-specification:'Symbola Italic';fill:#888888;fill-opacity:1"
       id="path4754"
       inkscape:connector-curvature="0" /></g></svg>