<?xml version="1.0" encoding="UTF-8" standalone="no"?>
<svg
   xmlns:dc="http://purl.org/dc/elements/1.1/"
   xmlns:cc="http://creativecommons.org/ns#"
   xmlns:rdf="http://www.w3.org/1999/02/22-rdf-syntax-ns#"
   xmlns:svg="http://www.w3.org/2000/svg"
   xmlns="http://www.w3.org/2000/svg"
   xmlns:sodipodi="http://sodipodi.sourceforge.net/DTD/sodipodi-0.dtd"
   xmlns:inkscape="http://www.inkscape.org/namespaces/inkscape"
   height="237.18201"
   width="100.021"
   id="svg2"
   xml:space="preserve"
   viewBox="0 0 100.021 237.182"
   y="0px"
   x="0px"
   version="1.1"
   sodipodi:docname="person-666.svg"
   inkscape:version="0.92.4 (unknown)"><sodipodi:namedview
     pagecolor="#ffffff"
     bordercolor="#666666"
     borderopacity="1"
     objecttolerance="10"
     gridtolerance="10"
     guidetolerance="10"
     inkscape:pageopacity="0"
     inkscape:pageshadow="2"
     inkscape:window-width="1920"
     inkscape:window-height="1163"
     id="namedview8"
     showgrid="false"
     inkscape:zoom="10.230419"
     inkscape:cx="38.401764"
     inkscape:cy="207.43387"
     inkscape:window-x="0"
     inkscape:window-y="0"
     inkscape:window-maximized="1"
     inkscape:current-layer="svg2" /><metadata
     id="metadata18"><rdf:RDF><cc:Work
         rdf:about=""><dc:format>image/svg+xml</dc:format><dc:type
           rdf:resource="http://purl.org/dc/dcmitype/StillImage" /><dc:title /></cc:Work></rdf:RDF></metadata><defs
     id="defs16" /><path
     inkscape:connector-curvature="0"
     d="m 90.457387,145.76253 c 4.107403,0 7.549109,-3.20354 7.79118,-7.35389 0.391414,-6.76824 0.573944,-12.9801 0.576872,-18.69806 C 98.784439,90.251097 94.080647,73.944475 87.662831,64.140589 84.455387,59.274762 80.70621,56.152238 77.240101,54.423576 73.960426,52.772025 71.075093,52.375731 69.307387,52.34352 69.16195,52.33472 69.016512,52.32205 68.869121,52.32205 H 31.157739 c -0.149342,0 -0.29478,0.01367 -0.442171,0.02147 -1.768681,0.03416 -4.654991,0.426553 -7.93369,2.07908 -5.250408,2.604218 -10.9098,8.298749 -14.8727402,18.389606 -4.0097932,10.129901 -6.6999076,24.777164 -6.7135729,46.896424 0,5.71698 0.1864339,11.93372 0.5837041,18.70391 0.2449995,4.14645 3.6847539,7.34901 7.7862999,7.34901 0.1551989,0 0.3103978,-0.005 0.4675491,-0.0137 4.304573,-0.25378 7.589129,-3.9483 7.339249,-8.25384 -0.382629,-6.49005 -0.559302,-12.4042 -0.559302,-17.78541 -0.03124,-23.641966 3.415352,-36.920746 6.801421,-43.849059 V 222.27949 c 0,6.66672 5.404632,12.06745 12.067448,12.06745 6.664768,0 12.069399,-5.40073 12.069399,-12.06745 v -88.11296 h 4.524194 v 88.11296 c 0,6.66672 5.404632,12.06745 12.067448,12.06745 6.664768,0 12.069399,-5.40073 12.069399,-12.06745 V 75.907399 c 0.578824,1.18693 1.161552,2.546629 1.736471,4.133757 2.750632,7.627197 5.063974,20.138764 5.057142,39.668454 0,5.38315 -0.174721,11.29828 -0.550517,17.79028 -0.250856,4.30555 3.035651,7.99909 7.341201,8.24897 0.154223,0.01 0.308445,0.0137 0.460716,0.0137 z"
     id="path6"
     style="fill:#888888;stroke-width:0.97609377" /><circle
     cx="50.010502"
     cy="28.169474"
     r="18.589815"
     id="circle8"
     style="fill:#888888;stroke-width:0.82621396" /><path
     inkscape:connector-curvature="0"
     d="M 66.357627,6.7375029 C 66.117957,6.3480341 65.908243,5.9286072 65.698528,5.509179 64.979509,4.1011019 64.590042,2.2436381 65.428896,0.11654286 65.279106,0.08658217 64.859672,0.74568289 64.560081,1.4946602 64.26049,2.2436381 64.080738,2.7829013 63.990861,3.711634 c -0.08988,1.0485679 0.02995,2.1870143 0.29959,3.2355821 1.108484,4.2242339 -0.269634,7.5197349 -3.684972,10.0063379 -1.078527,0.778938 -1.018606,1.587833 -0.629138,2.576483 0.119858,0.299593 0.299593,0.599183 0.479345,0.868815 1.677708,2.456644 3.595092,2.546523 5.093048,0.02995 2.636399,-4.403988 3.505214,-8.957772 0.808893,-13.6913123 z"
     id="path4"
     style="fill:#ff0000;fill-opacity:1;stroke-width:0.299591" /><path
     style="fill:#ff0000;fill-opacity:1;stroke-width:0.299591"
     id="path4754"
     d="m 33.663376,6.7375029 c 0.239671,-0.3894688 0.449384,-0.8088957 0.659099,-1.2283239 0.71902,-1.4080771 1.108486,-3.2655409 0.269632,-5.39263614 0.149796,-0.02996069 0.569224,0.62914003 0.868815,1.37811734 0.299591,0.7489779 0.479344,1.2882411 0.56922,2.2169738 0.08989,1.0485679 -0.02995,2.1870143 -0.29959,3.2355821 -1.108484,4.2242339 0.269634,7.5197349 3.684971,10.0063379 1.078528,0.778938 1.018608,1.587833 0.62914,2.576483 -0.119859,0.299593 -0.299593,0.599183 -0.479346,0.868815 -1.677708,2.456644 -3.595093,2.546523 -5.093048,0.02995 -2.636398,-4.403981 -3.505214,-8.957766 -0.808893,-13.6913063 z"
     inkscape:connector-curvature="0" /></svg>