<?xml version="1.0" encoding="UTF-8" standalone="no"?>
<svg
   xmlns:dc="http://purl.org/dc/elements/1.1/"
   xmlns:cc="http://creativecommons.org/ns#"
   xmlns:rdf="http://www.w3.org/1999/02/22-rdf-syntax-ns#"
   xmlns:svg="http://www.w3.org/2000/svg"
   xmlns="http://www.w3.org/2000/svg"
   xmlns:sodipodi="http://sodipodi.sourceforge.net/DTD/sodipodi-0.dtd"
   xmlns:inkscape="http://www.inkscape.org/namespaces/inkscape"
   height="237.18201"
   width="100.021"
   id="svg2"
   xml:space="preserve"
   viewBox="0 0 100.021 237.182"
   y="0px"
   x="0px"
   version="1.1"
   sodipodi:docname="person-777.svg"
   inkscape:version="0.92.4 (unknown)"><sodipodi:namedview
     pagecolor="#ffffff"
     bordercolor="#666666"
     borderopacity="1"
     objecttolerance="10"
     gridtolerance="10"
     guidetolerance="10"
     inkscape:pageopacity="0"
     inkscape:pageshadow="2"
     inkscape:window-width="1920"
     inkscape:window-height="1163"
     id="namedview8"
     showgrid="false"
     inkscape:zoom="2.7281117"
     inkscape:cx="-12.149915"
     inkscape:cy="110.90767"
     inkscape:window-x="0"
     inkscape:window-y="0"
     inkscape:window-maximized="1"
     inkscape:current-layer="svg2" /><metadata
     id="metadata18"><rdf:RDF><cc:Work
         rdf:about=""><dc:format>image/svg+xml</dc:format><dc:type
           rdf:resource="http://purl.org/dc/dcmitype/StillImage" /><dc:title /></cc:Work></rdf:RDF></metadata><defs
     id="defs16" /><path
     inkscape:connector-curvature="0"
     d="m 90.457387,145.76253 c 4.107403,0 7.549109,-3.20354 7.79118,-7.35389 0.391414,-6.76824 0.573944,-12.9801 0.576872,-18.69806 C 98.784439,90.251097 94.080647,73.944475 87.662831,64.140589 84.455387,59.274762 80.70621,56.152238 77.240101,54.423576 73.960426,52.772025 71.075093,52.375731 69.307387,52.34352 69.16195,52.33472 69.016512,52.32205 68.869121,52.32205 H 31.157739 c -0.149342,0 -0.29478,0.01367 -0.442171,0.02147 -1.768681,0.03416 -4.654991,0.426553 -7.93369,2.07908 -5.250408,2.604218 -10.9098,8.298749 -14.8727402,18.389606 -4.0097932,10.129901 -6.6999076,24.777164 -6.7135729,46.896424 0,5.71698 0.1864339,11.93372 0.5837041,18.70391 0.2449995,4.14645 3.6847539,7.34901 7.7862999,7.34901 0.1551989,0 0.3103978,-0.005 0.4675491,-0.0137 4.304573,-0.25378 7.589129,-3.9483 7.339249,-8.25384 -0.382629,-6.49005 -0.559302,-12.4042 -0.559302,-17.78541 -0.03124,-23.641966 3.415352,-36.920746 6.801421,-43.849059 V 222.27949 c 0,6.66672 5.404632,12.06745 12.067448,12.06745 6.664768,0 12.069399,-5.40073 12.069399,-12.06745 v -88.11296 h 4.524194 v 88.11296 c 0,6.66672 5.404632,12.06745 12.067448,12.06745 6.664768,0 12.069399,-5.40073 12.069399,-12.06745 V 75.907399 c 0.578824,1.18693 1.161552,2.546629 1.736471,4.133757 2.750632,7.627197 5.063974,20.138764 5.057142,39.668454 0,5.38315 -0.174721,11.29828 -0.550517,17.79028 -0.250856,4.30555 3.035651,7.99909 7.341201,8.24897 0.154223,0.01 0.308445,0.0137 0.460716,0.0137 z"
     id="path6"
     style="fill:#888888;stroke-width:0.97609377" /><g
     id="g4762"
     transform="matrix(0.32082216,0,0,0.32082216,81.692473,-1.9781159)"
     style="fill:#888888;fill-opacity:1"><path
       id="path2"
       d="M -12.770975,138.98424 -93.774978,18.682239 c -1.114,-1.656 -2.98,-2.649 -4.977,-2.649 -1.997002,0 -3.862002,0.993 -4.978002,2.649 l -81.005,120.302001 c -1.238,1.84 -1.361,4.213 -0.319,6.171 1.042,1.957 3.079,3.181 5.297,3.181 h 162.010005 c 2.218,0 4.255,-1.224 5.297,-3.181 1.041,-1.958 0.918,-4.331 -0.321,-6.171 z m -85.982003,-18.508 c -12.812002,0 -24.186002,-7.411 -29.385002,-19.009 5.201,-11.596001 16.574,-19.005001 29.385002,-19.005001 12.81,0.001 24.185003,7.411 29.384003,19.009001 -5.199,11.596 -16.574003,19.005 -29.384003,19.005 z"
       inkscape:connector-curvature="0"
       style="fill:#888888;fill-opacity:1" /><path
       id="path4"
       d="m -98.529978,87.299239 c -7.814002,0 -14.171002,6.357 -14.171002,14.171001 0,7.813 6.356,14.169 14.171002,14.169 7.815,0 14.172003,-6.355 14.172003,-14.169 0,-7.814001 -6.358003,-14.171001 -14.172003,-14.171001 z"
       inkscape:connector-curvature="0"
       style="fill:#888888;fill-opacity:1" /></g></svg>