<?xml version="1.0" encoding="UTF-8" standalone="no"?>
<svg
   xmlns:dc="http://purl.org/dc/elements/1.1/"
   xmlns:cc="http://creativecommons.org/ns#"
   xmlns:rdf="http://www.w3.org/1999/02/22-rdf-syntax-ns#"
   xmlns:svg="http://www.w3.org/2000/svg"
   xmlns="http://www.w3.org/2000/svg"
   xmlns:sodipodi="http://sodipodi.sourceforge.net/DTD/sodipodi-0.dtd"
   xmlns:inkscape="http://www.inkscape.org/namespaces/inkscape"
   version="1.1"
   x="0px"
   y="0px"
   viewBox="0 0 128.20606 231.51186"
   xml:space="preserve"
   id="svg2"
   width="128.20607"
   height="231.51187"
   sodipodi:docname="person-451-2.svg"
   inkscape:version="0.92.4 (unknown)"><sodipodi:namedview
     pagecolor="#ffffff"
     bordercolor="#666666"
     borderopacity="1"
     objecttolerance="10"
     gridtolerance="10"
     guidetolerance="10"
     inkscape:pageopacity="0"
     inkscape:pageshadow="2"
     inkscape:window-width="1920"
     inkscape:window-height="1163"
     id="namedview8"
     showgrid="false"
     fit-margin-top="0"
     fit-margin-left="0"
     fit-margin-right="0"
     fit-margin-bottom="0"
     inkscape:zoom="3.8479152"
     inkscape:cx="49.334701"
     inkscape:cy="115.75594"
     inkscape:window-x="0"
     inkscape:window-y="0"
     inkscape:window-maximized="1"
     inkscape:current-layer="svg2" /><metadata
     id="metadata18"><rdf:RDF><cc:Work
         rdf:about=""><dc:format>image/svg+xml</dc:format><dc:type
           rdf:resource="http://purl.org/dc/dcmitype/StillImage" /><dc:title></dc:title></cc:Work></rdf:RDF></metadata><defs
     id="defs16" /><g
     transform="scale(0.97609376)"
     id="g4"
     style="fill:#888888"><path
       d="m 91.448,146.428 c 4.208,0 7.734,-3.282 7.982,-7.534 0.401,-6.934 0.588,-13.298 0.591,-19.156 C 99.979,89.557 95.16,72.851 88.585,62.807 85.299,57.822 81.458,54.623 77.907,52.852 74.547,51.16 71.591,50.754 69.78,50.721 69.631,50.712 69.482,50.699 69.331,50.699 H 30.696 c -0.153,0 -0.302,0.014 -0.453,0.022 -1.812,0.035 -4.769,0.437 -8.128,2.13 C 16.736,55.519 10.938,61.353 6.878,71.691 2.77,82.069 0.014,97.075 0,119.736 c 0,5.857 0.191,12.226 0.598,19.162 0.251,4.248 3.775,7.529 7.977,7.529 0.159,0 0.318,-0.005 0.479,-0.014 4.41,-0.26 7.775,-4.045 7.519,-8.456 C 16.181,131.308 16,125.249 16,119.736 15.968,95.515 19.499,81.911 22.968,74.813 v 150.006 c 0,6.83 5.537,12.363 12.363,12.363 6.828,0 12.365,-5.533 12.365,-12.363 v -90.271 h 4.635 v 90.271 c 0,6.83 5.537,12.363 12.363,12.363 6.828,0 12.365,-5.533 12.365,-12.363 V 74.862 c 0.593,1.216 1.19,2.609 1.779,4.235 2.818,7.814 5.188,20.632 5.181,40.64 0,5.515 -0.179,11.575 -0.564,18.226 -0.257,4.411 3.11,8.195 7.521,8.451 0.158,0.01 0.316,0.014 0.472,0.014 z"
       id="path6"
       style="fill:#888888"
       inkscape:connector-curvature="0" /><circle
       cx="50.013"
       cy="22.5"
       r="22.5"
       id="circle8"
       style="fill:#888888" /></g><path
     style="fill:#a90000;fill-opacity:1;stroke-width:219.62591553;image-rendering:optimizeQuality;shape-rendering:geometricPrecision;text-rendering:geometricPrecision"
     id="path6-3"
     d="m 115.7519,77.326958 c -0.71949,3.387773 -0.14008,2.985704 0.39006,4.536044 1.62215,-1.142231 4.02416,-4.592247 1.40758,-6.688225 3.85037,1.19929 3.29784,3.635929 2.16243,6.764303 -0.46516,1.087763 -0.77901,2.22738 -0.96152,3.38863 0.72367,0.5508 1.45085,1.08862 2.1262,1.690417 -1.36871,-3.409385 0.0761,-6.110608 3.28833,-7.732743 -1.36542,1.824454 -2.46258,4.245523 -0.82052,6.270584 1.17082,1.363591 3.97055,2.590553 4.75136,5.394671 0.75661,3.152576 -2.5499,5.967939 -4.76606,7.935063 1.36102,-2.314726 2.72372,-4.482434 1.30304,-6.725385 -0.90266,1.359264 -2.2395,3.49673 -3.93857,3.674846 -2.16595,0.227313 -1.7838,-3.439649 -2.91481,-3.508831 -0.80756,2.237768 -1.8185,3.725866 -2.38736,3.846902 -0.95888,0.205791 -1.86945,-2.862056 -2.2957,-3.654093 -1.45876,1.152597 -0.49723,4.519616 -0.20579,6.114081 -4.84734,-2.954586 -5.18282,-13.572709 0.42014,-17.990308 -1.33159,2.315582 -2.52051,4.80928 0.0648,7.002948 -0.93824,-3.031519 0.96328,-9.008111 2.37634,-10.318904 z"
     class="fil0"
     inkscape:connector-curvature="0" /><g
     id="g4764"
     transform="rotate(-14.399886,191.87173,108.03855)"
     style="fill-opacity:1;fill:#888888"><polygon
       transform="matrix(219.62592,0,0,219.62592,69.883727,47.807849)"
       class="fil0"
       points="0.207386,0.170339 0.0599724,0.278898 0.069378,0.291665 0.216791,0.183106 "
       id="polygon8"
       style="image-rendering:optimizeQuality;shape-rendering:geometricPrecision;text-rendering:geometricPrecision;fill-opacity:1;fill:#888888" /><path
       inkscape:connector-curvature="0"
       class="fil0"
       d="m 115.6575,84.877849 2.17298,2.958032 c 11.35563,-2.871565 3.91602,-12.845525 -2.17298,-2.958032 z"
       id="path10"
       style="stroke-width:219.62591553;image-rendering:optimizeQuality;shape-rendering:geometricPrecision;text-rendering:geometricPrecision;fill-opacity:1;fill:#888888" /></g></svg>