<?xml version="1.0" encoding="UTF-8" standalone="no"?>
<svg
   xmlns:dc="http://purl.org/dc/elements/1.1/"
   xmlns:cc="http://creativecommons.org/ns#"
   xmlns:rdf="http://www.w3.org/1999/02/22-rdf-syntax-ns#"
   xmlns:svg="http://www.w3.org/2000/svg"
   xmlns="http://www.w3.org/2000/svg"
   xmlns:sodipodi="http://sodipodi.sourceforge.net/DTD/sodipodi-0.dtd"
   xmlns:inkscape="http://www.inkscape.org/namespaces/inkscape"
   height="237.18201"
   width="100.021"
   id="svg2"
   xml:space="preserve"
   viewBox="0 0 100.021 237.182"
   y="0px"
   x="0px"
   version="1.1"
   sodipodi:docname="person-451.svg"
   inkscape:version="0.92.4 (unknown)"><sodipodi:namedview
     pagecolor="#ffffff"
     bordercolor="#666666"
     borderopacity="1"
     objecttolerance="10"
     gridtolerance="10"
     guidetolerance="10"
     inkscape:pageopacity="0"
     inkscape:pageshadow="2"
     inkscape:window-width="1920"
     inkscape:window-height="1163"
     id="namedview8"
     showgrid="false"
     inkscape:zoom="2.7281117"
     inkscape:cx="-20.908424"
     inkscape:cy="115.62488"
     inkscape:window-x="0"
     inkscape:window-y="0"
     inkscape:window-maximized="1"
     inkscape:current-layer="svg2" /><metadata
     id="metadata18"><rdf:RDF><cc:Work
         rdf:about=""><dc:format>image/svg+xml</dc:format><dc:type
           rdf:resource="http://purl.org/dc/dcmitype/StillImage" /><dc:title /></cc:Work></rdf:RDF></metadata><defs
     id="defs16" /><path
     inkscape:connector-curvature="0"
     d="m 90.457387,145.76253 c 4.107403,0 7.549109,-3.20354 7.79118,-7.35389 0.391414,-6.76824 0.573944,-12.9801 0.576872,-18.69806 C 98.784439,90.251097 94.080647,73.944475 87.662831,64.140589 84.455387,59.274762 80.70621,56.152238 77.240101,54.423576 73.960426,52.772025 71.075093,52.375731 69.307387,52.34352 69.16195,52.33472 69.016512,52.32205 68.869121,52.32205 H 31.157739 c -0.149342,0 -0.29478,0.01367 -0.442171,0.02147 -1.768681,0.03416 -4.654991,0.426553 -7.93369,2.07908 -5.250408,2.604218 -10.9098,8.298749 -14.8727402,18.389606 -4.0097932,10.129901 -6.6999076,24.777164 -6.7135729,46.896424 0,5.71698 0.1864339,11.93372 0.5837041,18.70391 0.2449995,4.14645 3.6847539,7.34901 7.7862999,7.34901 0.1551989,0 0.3103978,-0.005 0.4675491,-0.0137 4.304573,-0.25378 7.589129,-3.9483 7.339249,-8.25384 -0.382629,-6.49005 -0.559302,-12.4042 -0.559302,-17.78541 -0.03124,-23.641966 3.415352,-36.920746 6.801421,-43.849059 V 222.27949 c 0,6.66672 5.404632,12.06745 12.067448,12.06745 6.664768,0 12.069399,-5.40073 12.069399,-12.06745 v -88.11296 h 4.524194 v 88.11296 c 0,6.66672 5.404632,12.06745 12.067448,12.06745 6.664768,0 12.069399,-5.40073 12.069399,-12.06745 V 75.907399 c 0.578824,1.18693 1.161552,2.546629 1.736471,4.133757 2.750632,7.627197 5.063974,20.138764 5.057142,39.668454 0,5.38315 -0.174721,11.29828 -0.550517,17.79028 -0.250856,4.30555 3.035651,7.99909 7.341201,8.24897 0.154223,0.01 0.308445,0.0137 0.460716,0.0137 z"
     id="path6"
     style="fill:#888888;stroke-width:0.97609377" /><g
     transform="matrix(0.57871415,0,0,0.57871415,21.074964,-4.3975924)"
     id="g8"
     style="fill:#888888;fill-opacity:1"><path
       inkscape:connector-curvature="0"
       d="m 62.434,59.015 -8.014,8.013 c -0.236,0.237 -0.558,0.37 -0.893,0.37 H 34.593 c -2.126,0 -3.855,1.73 -3.855,3.855 0,2.126 1.729,3.855 3.855,3.855 h 18.41 L 63.301,64.811 v -0.006 l 2.291,-2.291 C 64.046,61.935 62.855,60.63 62.434,59.015 Z"
       id="path2"
       style="fill:#888888;fill-opacity:1" /><path
       inkscape:connector-curvature="0"
       d="m 66.152,23.997 c 1.975,5.43 0.305,11.366 -1.867,14.499 C 61.767,26.592 53.957,13.681 42.348,9.119 44.32,25.963 34.397,37.054 27.91,44.737 c 0.54,-6.411 -1.351,-10.65 -3.568,-12.771 0.517,11.631 -22.058,39.496 9.179,56.005 12.3,4.95 23.445,2.64 27.991,0 22.361,-12.569 32.5,-38.516 4.64,-63.974 z m 1.231,36.318 h 0.939 l -0.002,0.002 c 0.322,0.002 0.641,0.125 0.887,0.369 0.465,0.467 0.486,1.203 0.072,1.699 l 0.012,0.012 -14.871,14.87 c -0.236,0.236 -0.558,0.371 -0.893,0.371 H 34.593 c -3.52,0 -6.383,-2.864 -6.383,-6.385 0,-1.885 0.822,-3.58 2.125,-4.75 V 66.502 L 44.874,51.954 c 0.052,-0.054 0.104,-0.106 0.158,-0.158 l 0.083,-0.084 0.002,0.002 C 46.257,50.652 47.785,50 49.463,50 h 18.933 c 0.512,0 0.973,0.308 1.168,0.78 0.195,0.472 0.088,1.016 -0.273,1.378 l -3.797,3.796 c -0.435,0.463 -0.703,1.085 -0.703,1.77 0,1.429 1.162,2.591 2.592,2.591 z"
       id="path4"
       style="fill:#888888;fill-opacity:1" /><path
       inkscape:connector-curvature="0"
       d="m 49.463,52.528 c -1.028,0 -1.962,0.406 -2.654,1.064 L 35.54,64.869 H 53.003 L 63.73,54.143 c 0.023,-0.025 0.048,-0.049 0.071,-0.072 l 1.544,-1.543"
       id="path6-3"
       style="fill:#888888;fill-opacity:1" /></g></svg>