<?xml version="1.0" encoding="UTF-8" standalone="no"?>
<svg
   xmlns:dc="http://purl.org/dc/elements/1.1/"
   xmlns:cc="http://creativecommons.org/ns#"
   xmlns:rdf="http://www.w3.org/1999/02/22-rdf-syntax-ns#"
   xmlns:svg="http://www.w3.org/2000/svg"
   xmlns="http://www.w3.org/2000/svg"
   xmlns:sodipodi="http://sodipodi.sourceforge.net/DTD/sodipodi-0.dtd"
   xmlns:inkscape="http://www.inkscape.org/namespaces/inkscape"
   height="237.18201"
   width="100.021"
   id="svg2"
   xml:space="preserve"
   viewBox="0 0 100.021 237.182"
   y="0px"
   x="0px"
   version="1.1"
   sodipodi:docname="person-42.svg"
   inkscape:version="0.92.4 (unknown)"><sodipodi:namedview
     pagecolor="#ffffff"
     bordercolor="#666666"
     borderopacity="1"
     objecttolerance="10"
     gridtolerance="10"
     guidetolerance="10"
     inkscape:pageopacity="0"
     inkscape:pageshadow="2"
     inkscape:window-width="1920"
     inkscape:window-height="1163"
     id="namedview8"
     showgrid="false"
     inkscape:zoom="7.2339984"
     inkscape:cx="30.036504"
     inkscape:cy="203.92314"
     inkscape:window-x="0"
     inkscape:window-y="0"
     inkscape:window-maximized="1"
     inkscape:current-layer="layer1" /><metadata
     id="metadata18"><rdf:RDF><cc:Work
         rdf:about=""><dc:format>image/svg+xml</dc:format><dc:type
           rdf:resource="http://purl.org/dc/dcmitype/StillImage" /><dc:title /></cc:Work></rdf:RDF></metadata><defs
     id="defs16" /><path
     inkscape:connector-curvature="0"
     d="m 90.457387,145.76253 c 4.107403,0 7.549109,-3.20354 7.79118,-7.35389 0.391414,-6.76824 0.573944,-12.9801 0.576872,-18.69806 C 98.784439,90.251097 94.080647,73.944475 87.662831,64.140589 84.455387,59.274762 80.70621,56.152238 77.240101,54.423576 73.960426,52.772025 71.075093,52.375731 69.307387,52.34352 69.16195,52.33472 69.016512,52.32205 68.869121,52.32205 H 31.157739 c -0.149342,0 -0.29478,0.01367 -0.442171,0.02147 -1.768681,0.03416 -4.654991,0.426553 -7.93369,2.07908 -5.250408,2.604218 -10.9098,8.298749 -14.8727402,18.389606 -4.0097932,10.129901 -6.6999076,24.777164 -6.7135729,46.896424 0,5.71698 0.1864339,11.93372 0.5837041,18.70391 0.2449995,4.14645 3.6847539,7.34901 7.7862999,7.34901 0.1551989,0 0.3103978,-0.005 0.4675491,-0.0137 4.304573,-0.25378 7.589129,-3.9483 7.339249,-8.25384 -0.382629,-6.49005 -0.559302,-12.4042 -0.559302,-17.78541 -0.03124,-23.641966 3.415352,-36.920746 6.801421,-43.849059 V 222.27949 c 0,6.66672 5.404632,12.06745 12.067448,12.06745 6.664768,0 12.069399,-5.40073 12.069399,-12.06745 v -88.11296 h 4.524194 v 88.11296 c 0,6.66672 5.404632,12.06745 12.067448,12.06745 6.664768,0 12.069399,-5.40073 12.069399,-12.06745 V 75.907399 c 0.578824,1.18693 1.161552,2.546629 1.736471,4.133757 2.750632,7.627197 5.063974,20.138764 5.057142,39.668454 0,5.38315 -0.174721,11.29828 -0.550517,17.79028 -0.250856,4.30555 3.035651,7.99909 7.341201,8.24897 0.154223,0.01 0.308445,0.0137 0.460716,0.0137 z"
     id="path6"
     style="fill:#888888;stroke-width:0.97609377" /><g
     inkscape:groupmode="layer"
     id="layer1"
     inkscape:label="a"
     style="display:inline;opacity:1"><g
       id="g4773"
       transform="matrix(0.94816145,0,0,0.94816145,55.77759,6.0055584)"
       style="fill:#888888;fill-opacity:1"><path
         inkscape:connector-curvature="0"
         d="m -6.0823901,-3.9781163 c -15.4399999,0 -27.9999999,11 -27.9999999,24.5000003 a 21.38,21.38 0 0 0 0.48,4.5 c 0.59,-0.18 1.2,-0.35 1.8,-0.52 l 1.14,-0.33 c 1.18,-0.32 2.38,-0.62 3.59,-0.89 1.56,-0.36 3.21,-0.69 5.05,-1 2.78,-0.46 5.69,-0.81 8.64,-1 2.43,-0.17 4.8799999,-0.26 7.2999999,-0.26 q 1.85,0 3.68,0.07 l 1.19,0.06 c 0.81000002,0 1.62000002,0.07 2.42,0.13 h 0.06 l 1.38,0.12 c 0.73,0.06 1.45,0.12 2.17,0.2 l 0.76,0.09 h 0.1 l 0.64,0.08 c 0.68,0.09 1.37,0.17 2,0.27 l 1.24,0.2 h 0.26 l 1.2700001,0.22 0.72,0.13 0.57,0.11 1.86,0.39 1,0.22 1.58,0.39 1.79,0.46 1.58,0.46 1.22,0.35 a 21.39,21.39 0 0 0 0.51,-4.45 c 0,-13.5000003 -12.5600001,-24.5000003 -28.0000001,-24.5000003 z"
         id="path10"
         style="fill:#888888;fill-opacity:1" /><path
         inkscape:connector-curvature="0"
         d="m 18.14761,26.171884 -1.75,-0.45 -1.33,-0.33 -4.65,5.41 a 2,2 0 0 1 -1.5000001,0.7 v 0 a 2,2 0 0 1 -1.5,-0.67 l -6.72999998,-7.57 -1.95000002,-0.11 -1.21,-0.06 q -1.8,-0.07 -3.61,-0.07 c -2.24,0 -4.5099999,0.08 -6.7599999,0.24 l -6.73,7.57 a 2,2 0 0 1 -1.5,0.67 v 0 a 2,2 0 0 1 -1.5,-0.7 l -4.63,-5.4 c -1,0.23 -2,0.46 -2.93,0.72 l -1.13,0.33 -1.82,0.57 c 2.24,7.19 8.19,13.16 16.09,16.1 v 0 c 0.4,0.15 0.81,0.3 1.22,0.43 v 0 a 30.93,30.93 0 0 0 4.77,1.12 32.15,32.15 0 0 0 14.5999999,-1.12 c 0.41,-0.13 0.81,-0.28 1.22,-0.43 7.9200001,-2.97 13.8700001,-8.95 16.1000001,-16.1 l -1.24,-0.37 z"
         id="path12"
         style="fill:#888888;fill-opacity:1" /></g></g></svg>