<?xml version="1.0" encoding="UTF-8" standalone="no"?>
<svg
   xmlns:dc="http://purl.org/dc/elements/1.1/"
   xmlns:cc="http://creativecommons.org/ns#"
   xmlns:rdf="http://www.w3.org/1999/02/22-rdf-syntax-ns#"
   xmlns:svg="http://www.w3.org/2000/svg"
   xmlns="http://www.w3.org/2000/svg"
   xmlns:sodipodi="http://sodipodi.sourceforge.net/DTD/sodipodi-0.dtd"
   xmlns:inkscape="http://www.inkscape.org/namespaces/inkscape"
   height="237.18201"
   width="100.021"
   id="svg2"
   xml:space="preserve"
   viewBox="0 0 100.021 237.182"
   y="0px"
   x="0px"
   version="1.1"
   sodipodi:docname="person-404.svg"
   inkscape:version="0.92.4 (unknown)"><sodipodi:namedview
     pagecolor="#ffffff"
     bordercolor="#666666"
     borderopacity="1"
     objecttolerance="10"
     gridtolerance="10"
     guidetolerance="10"
     inkscape:pageopacity="0"
     inkscape:pageshadow="2"
     inkscape:window-width="1920"
     inkscape:window-height="1163"
     id="namedview8"
     showgrid="false"
     inkscape:zoom="1.9290663"
     inkscape:cx="7.9447988"
     inkscape:cy="88.712796"
     inkscape:window-x="0"
     inkscape:window-y="0"
     inkscape:window-maximized="1"
     inkscape:current-layer="svg2" /><metadata
     id="metadata18"><rdf:RDF><cc:Work
         rdf:about=""><dc:format>image/svg+xml</dc:format><dc:type
           rdf:resource="http://purl.org/dc/dcmitype/StillImage" /><dc:title /></cc:Work></rdf:RDF></metadata><defs
     id="defs16" /><g
     id="g4784"
     transform="matrix(1.3362844,0,0,1.3362844,-228.4591,-87.517943)"><path
       id="path4"
       d="M 190.34097,194.29033"
       class="st0"
       inkscape:connector-curvature="0" /><g
       style="fill:#888888;fill-opacity:1"
       id="g10"
       transform="translate(157.94097,104.09033)"><path
         style="fill:#888888;fill-opacity:1"
         id="path6-3"
         d="m 84.1,69.5 c -0.4,0 -0.7,0.3 -0.7,0.7 V 89.6 H 63.9 c -0.4,0 -0.7,0.3 -0.7,0.7 0,0.4 0.3,0.7 0.7,0.7 H 84 c 0.4,0 0.7,-0.3 0.7,-0.7 v -20 c 0,-0.5 -0.3,-0.8 -0.6,-0.8 z"
         class="st1"
         inkscape:connector-curvature="0" /><path
         style="fill:#888888;fill-opacity:1"
         id="path8"
         d="m 70.3,87.4 h 10.2 c 0.4,0 0.7,-0.3 0.7,-0.7 V 76.6 c 0,-0.4 -0.3,-0.7 -0.7,-0.7 -0.4,0 -0.7,0.3 -0.7,0.7 v 9.5 h -9.6 c -0.4,0 -0.7,0.3 -0.7,0.7 0.2,0.3 0.5,0.6 0.8,0.6 z"
         class="st1"
         inkscape:connector-curvature="0" /></g><path
       style="fill:#888888;fill-opacity:1"
       id="path12"
       d="m 242.64097,132.89033 c 0,0 0,-0.1 0,-0.1 0,0 0,0 0,0 0,-0.1 -0.1,-0.2 -0.1,-0.2 0,0 0,0 0,0 l -19,-18.7 c -0.1,-0.3 -0.3,-0.5 -0.6,-0.5 0,0 -0.1,0 -0.1,0 0,0 -0.1,0 -0.1,0 h -48.1 c -0.4,0 -0.7,0.3 -0.7,0.7 v 80.3 c 0,0.4 0.3,0.7 0.7,0.7 h 37.4 c 0.4,0 0.7,-0.3 0.7,-0.7 v -9.4 h 9.2 c 0.4,0 0.7,-0.3 0.7,-0.7 v -9.2 h 9.2 c 0.4,0 0.7,-0.3 0.7,-0.7 v -9.3 h 9.6 c 0.4,0 0.7,-0.3 0.7,-0.7 v -31.3 c -0.2,-0.1 -0.2,-0.1 -0.2,-0.2 z m -19,-17.1 16.8,16.7 h -16.8 z m 8.1,47.9 c -0.4,0 -0.7,0.3 -0.7,0.7 v 9.3 h -9.2 c -0.4,0 -0.7,0.3 -0.7,0.7 v 9.2 h -9.2 c -0.4,0 -0.7,0.3 -0.7,0.7 v 9.4 h -36 v -79 h 47 v 18.4 c 0,0.4 0.3,0.7 0.7,0.7 h 18.4 v 30 h -9.6 z"
       class="st1"
       inkscape:connector-curvature="0" /><path
       style="fill:#888888;fill-opacity:1"
       id="path14"
       d="m 224.04097,148.99033 h -16.2 c -0.4,0 -0.7,0.3 -0.7,0.7 v 1.5 h -0.8 v 16.2 h 16.2 v -0.8 h 1.5 c 0.4,0 0.7,-0.3 0.7,-0.7 v -16.2 c -0.1,-0.4 -0.4,-0.7 -0.7,-0.7 z m -0.7,16.2 h -14.9 v -14.9 h 14.9 z"
       class="st1"
       inkscape:connector-curvature="0" /><path
       style="fill:#888888;fill-opacity:1"
       id="path16"
       d="m 201.34097,179.19033 -17.4,-30.2 c -0.1,-0.3 -0.5,-0.4 -0.7,-0.3 -0.3,0.1 -0.5,0.3 -0.5,0.6 v 2 l -0.4,-0.8 c -0.1,-0.2 -0.3,-0.3 -0.5,-0.2 -0.2,0.1 -0.3,0.2 -0.3,0.4 v 30.4 c 0,0.2 0.2,0.4 0.4,0.4 h 17.4 c 0.2,0 0.3,-0.1 0.4,-0.2 0.1,-0.1 0.1,-0.3 0,-0.4 l -0.3,-0.6 h 1.5 c 0.2,0 0.5,-0.1 0.6,-0.3 -0.1,-0.3 -0.1,-0.6 -0.2,-0.8 z m -17.3,-0.3 v -27.1 l 15.6,27.1 z"
       class="st1"
       inkscape:connector-curvature="0" /><path
       style="fill:#888888;fill-opacity:1"
       id="path18"
       d="m 208.14097,134.09033 c 0,-5.6 -4.5,-10.1 -10.1,-10.1 -3.5,0 -6.6,1.8 -8.4,4.6 -1.9,1.8 -2.9,4.3 -2.9,7 0,5.4 4.4,9.9 9.9,9.9 2.6,0 5.1,-1 7,-2.9 2.7,-1.8 4.5,-4.9 4.5,-8.5 z m -10.1,-8.7 c 4.8,0 8.8,3.9 8.8,8.8 0,4.8 -3.9,8.8 -8.8,8.8 -4.8,0 -8.8,-3.9 -8.8,-8.8 0.1,-4.9 4,-8.8 8.8,-8.8 z"
       class="st1"
       inkscape:connector-curvature="0" /></g></svg>