<?xml version="1.0" encoding="UTF-8" standalone="no"?>
<svg
   xmlns:dc="http://purl.org/dc/elements/1.1/"
   xmlns:cc="http://creativecommons.org/ns#"
   xmlns:rdf="http://www.w3.org/1999/02/22-rdf-syntax-ns#"
   xmlns:svg="http://www.w3.org/2000/svg"
   xmlns="http://www.w3.org/2000/svg"
   height="237.18201"
   width="100.021"
   id="svg2"
   xml:space="preserve"
   viewBox="0 0 100.021 237.182"
   y="0px"
   x="0px"
   version="1.1"><metadata
     id="metadata18"><rdf:RDF><cc:Work
         rdf:about=""><dc:format>image/svg+xml</dc:format><dc:type
           rdf:resource="http://purl.org/dc/dcmitype/StillImage" /><dc:title></dc:title></cc:Work></rdf:RDF></metadata><defs
     id="defs16" /><g
     style="fill:#888888"
     id="g4"><path
       style="fill:#888888"
       id="path6"
       d="m 91.448,146.428 c 4.208,0 7.734,-3.282 7.982,-7.534 0.401,-6.934 0.588,-13.298 0.591,-19.156 C 99.979,89.557 95.16,72.851 88.585,62.807 85.299,57.822 81.458,54.623 77.907,52.852 74.547,51.16 71.591,50.754 69.78,50.721 69.631,50.712 69.482,50.699 69.331,50.699 l -38.635,0 c -0.153,0 -0.302,0.014 -0.453,0.022 -1.812,0.035 -4.769,0.437 -8.128,2.13 C 16.736,55.519 10.938,61.353 6.878,71.691 2.77,82.069 0.014,97.075 0,119.736 c 0,5.857 0.191,12.226 0.598,19.162 0.251,4.248 3.775,7.529 7.977,7.529 0.159,0 0.318,-0.005 0.479,-0.014 4.41,-0.26 7.775,-4.045 7.519,-8.456 C 16.181,131.308 16,125.249 16,119.736 15.968,95.515 19.499,81.911 22.968,74.813 l 0,150.006 c 0,6.83 5.537,12.363 12.363,12.363 6.828,0 12.365,-5.533 12.365,-12.363 l 0,-90.271 4.635,0 0,90.271 c 0,6.83 5.537,12.363 12.363,12.363 6.828,0 12.365,-5.533 12.365,-12.363 l 0,-149.957 c 0.593,1.216 1.19,2.609 1.779,4.235 2.818,7.814 5.188,20.632 5.181,40.64 0,5.515 -0.179,11.575 -0.564,18.226 -0.257,4.411 3.11,8.195 7.521,8.451 0.158,0.01 0.316,0.014 0.472,0.014 z" /><circle
       style="fill:#888888"
       id="circle8"
       r="22.5"
       cy="22.5"
       cx="50.013" /></g></svg>
